<svg width="32" height="26" viewBox="0 0 32 26" fill="none" xmlns="http://www.w3.org/2000/svg">
<path d="M17.6667 19.6667V3.00004C17.6667 2.55801 17.4911 2.13409 17.1785 1.82153C16.8659 1.50897 16.442 1.33337 16 1.33337H2.66667C2.22464 1.33337 1.80072 1.50897 1.48816 1.82153C1.17559 2.13409 1 2.55801 1 3.00004V19.6667C1 20.1087 1.17559 20.5327 1.48816 20.8452C1.80072 21.1578 2.22464 21.3334 2.66667 21.3334H4.33333M17.6667 19.6667C17.6667 20.1087 17.4911 20.5327 17.1785 20.8452C16.8659 21.1578 16.442 21.3334 16 21.3334H11M17.6667 19.6667V6.33337C17.6667 5.89135 17.8423 5.46742 18.1548 5.15486C18.4674 4.8423 18.8913 4.66671 19.3333 4.66671H23.6433C24.0853 4.6668 24.5092 4.84246 24.8217 5.15504L30.5117 10.845C30.8242 11.1575 30.9999 11.5814 31 12.0234V19.6667C31 20.1087 30.8244 20.5327 30.5118 20.8452C30.1993 21.1578 29.7754 21.3334 29.3333 21.3334H27.6667M17.6667 19.6667C17.6667 20.1087 17.8423 20.5327 18.1548 20.8452C18.4674 21.1578 18.8913 21.3334 19.3333 21.3334H21M4.33333 21.3334C4.33333 22.2174 4.68452 23.0653 5.30964 23.6904C5.93477 24.3155 6.78261 24.6667 7.66667 24.6667C8.55072 24.6667 9.39857 24.3155 10.0237 23.6904C10.6488 23.0653 11 22.2174 11 21.3334M4.33333 21.3334C4.33333 20.4493 4.68452 19.6015 5.30964 18.9764C5.93477 18.3512 6.78261 18 7.66667 18C8.55072 18 9.39857 18.3512 10.0237 18.9764C10.6488 19.6015 11 20.4493 11 21.3334M27.6667 21.3334C27.6667 22.2174 27.3155 23.0653 26.6904 23.6904C26.0652 24.3155 25.2174 24.6667 24.3333 24.6667C23.4493 24.6667 22.6014 24.3155 21.9763 23.6904C21.3512 23.0653 21 22.2174 21 21.3334M27.6667 21.3334C27.6667 20.4493 27.3155 19.6015 26.6904 18.9764C26.0652 18.3512 25.2174 18 24.3333 18C23.4493 18 22.6014 18.3512 21.9763 18.9764C21.3512 19.6015 21 20.4493 21 21.3334" stroke="#121212" stroke-linecap="round" stroke-linejoin="round"/>
</svg>
