<svg width="32" height="32" viewBox="0 0 32 32" fill="none" xmlns="http://www.w3.org/2000/svg">
<path d="M26.6067 5.39333L20.7133 11.2867L26.6067 5.39333ZM20.7133 20.7133L26.6067 26.6067L20.7133 20.7133ZM11.2867 11.2867L5.39333 5.39333L11.2867 11.2867ZM11.2867 20.7133L5.39333 26.6067L11.2867 20.7133ZM31 16C31 17.9698 30.612 19.9204 29.8582 21.7403C29.1044 23.5601 27.9995 25.2137 26.6066 26.6066C25.2137 27.9995 23.5601 29.1044 21.7403 29.8582C19.9204 30.612 17.9698 31 16 31C14.0302 31 12.0796 30.612 10.2597 29.8582C8.43986 29.1044 6.78628 27.9995 5.3934 26.6066C4.00052 25.2137 2.89563 23.5601 2.14181 21.7403C1.38799 19.9204 1 17.9698 1 16C1 12.0218 2.58035 8.20644 5.3934 5.3934C8.20644 2.58035 12.0218 1 16 1C19.9782 1 23.7936 2.58035 26.6066 5.3934C29.4196 8.20644 31 12.0218 31 16ZM22.6667 16C22.6667 17.7681 21.9643 19.4638 20.714 20.714C19.4638 21.9643 17.7681 22.6667 16 22.6667C14.2319 22.6667 12.5362 21.9643 11.286 20.714C10.0357 19.4638 9.33333 17.7681 9.33333 16C9.33333 14.2319 10.0357 12.5362 11.286 11.286C12.5362 10.0357 14.2319 9.33333 16 9.33333C17.7681 9.33333 19.4638 10.0357 20.714 11.286C21.9643 12.5362 22.6667 14.2319 22.6667 16V16Z" stroke="#121212" stroke-linecap="round" stroke-linejoin="round"/>
</svg>
