<svg width="28" height="28" viewBox="0 0 28 28" fill="none" xmlns="http://www.w3.org/2000/svg">
<path d="M1.63666 8.99992H0.666656V0.666587L1.63666 8.99992ZM1.63666 8.99992C2.74307 6.26347 4.72613 3.97143 7.27504 2.48302C9.82395 0.99461 12.7947 0.393942 15.7216 0.775154C18.6485 1.15637 21.3663 2.49791 23.4489 4.58955C25.5316 6.68118 26.8614 9.40469 27.23 12.3333M1.63666 8.99992H8.99999M26.365 18.9999H27.3333V27.3333L26.365 18.9999ZM26.365 18.9999C25.257 21.7348 23.2734 24.025 20.7247 25.5121C18.1761 26.9992 15.2062 27.5991 12.2802 27.218C9.35409 26.837 6.63699 25.4964 4.55421 23.4061C2.47144 21.3159 1.14058 18.594 0.769989 15.6666M26.365 18.9999H19" stroke="#121212" stroke-linecap="round" stroke-linejoin="round"/>
</svg>
